<?xml version="1.0" encoding="UTF-8" standalone="no"?>
<svg
   width="1600mm"
   height="900mm"
   viewBox="0 0 1600 900"
   version="1.1"
   id="svg8"
   inkscape:version="1.4.2 (f4327f4, 2025-05-13)"
   sodipodi:docname="heureka.svg"
   xmlns:inkscape="http://www.inkscape.org/namespaces/inkscape"
   xmlns:sodipodi="http://sodipodi.sourceforge.net/DTD/sodipodi-0.dtd"
   xmlns="http://www.w3.org/2000/svg"
   xmlns:svg="http://www.w3.org/2000/svg"
   xmlns:rdf="http://www.w3.org/1999/02/22-rdf-syntax-ns#"
   xmlns:cc="http://creativecommons.org/ns#"
   xmlns:dc="http://purl.org/dc/elements/1.1/">
  <defs
     id="defs2" />
  <sodipodi:namedview
     id="base"
     pagecolor="#ffffff"
     bordercolor="#666666"
     borderopacity="1.0"
     inkscape:pageopacity="0.0"
     inkscape:pageshadow="2"
     inkscape:zoom="0.12374369"
     inkscape:cx="-3632.5085"
     inkscape:cy="2121.3203"
     inkscape:document-units="mm"
     inkscape:current-layer="g931"
     inkscape:document-rotation="0"
     showgrid="false"
     inkscape:window-width="3424"
     inkscape:window-height="1353"
     inkscape:window-x="-7"
     inkscape:window-y="0"
     inkscape:window-maximized="0"
     inkscape:showpageshadow="2"
     inkscape:pagecheckerboard="0"
     inkscape:deskcolor="#d1d1d1" />
  <metadata
     id="metadata5">
    <rdf:RDF>
      <cc:Work
         rdf:about="">
        <dc:format>image/svg+xml</dc:format>
        <dc:type
           rdf:resource="http://purl.org/dc/dcmitype/StillImage" />
      </cc:Work>
    </rdf:RDF>
  </metadata>
  <g
     inkscape:label="Layer 1"
     inkscape:groupmode="layer"
     id="layer1">
    <g
       id="g931">
      <path
         style="fill:#303030;stroke:none;stroke-width:3.07319"
         d="m 845.36245,207.6215 v -3.07327 c -49.37885,-6.682 -63.48821,-58.64478 -15.36589,-82.97855 43.47647,-21.983778 161.59772,-15.26264 208.97714,-12.01525 41.7554,2.8621 91.197,38.51897 39.9484,74.56054 -25.7257,18.09303 -111.65837,16.61151 -141.36383,14.28695 l 12.29285,46.09791 h -3.07327 l -23.66055,-39.86611 -74.68158,2.98778 v 3.07316 l 73.75666,-6.14643 c 3.92129,21.72383 18.1072,40.89998 36.87832,52.24434 l -18.43916,-55.31749 c 31.21439,5.77427 125.68736,2.96409 150.26366,-19.45178 33.1076,-30.19934 8.6295,-70.37337 -30.4092,-75.24805 -52.3457,-6.53646 -191.947,-13.626038 -239.18506,12.88314 -47.91882,26.89168 -27.14059,86.76489 24.06151,87.96311 m 282.73385,12.29286 -7.1206,52.12318 -23.1872,36.99947 -0.6482,36.87833 -21.288,73.75665 h -3.0731 c -0.2707,-32.24641 -25.3785,-61.61665 -20.3139,-94.99404 3.1777,-20.95478 33.6054,-30.38123 24.561,-55.45977 -12.4218,-34.44436 -61.6083,-63.58962 -78.00377,-15.49865 h 3.07317 c 22.9168,-29.72637 56.5007,-24.75703 39.9515,15.36589 h 3.0732 c 10.6763,-11.73521 28.7958,-10.42606 28.0798,9.2291 -0.5076,13.90749 -13.5529,21.89191 -18.8602,33.79565 l -12.2928,-6.14643 27.6587,132.14741 h 3.0733 l 33.805,-138.29372 c 8.2025,7.61564 26.2513,11.1246 27.081,-5.93073 0.3717,-7.62853 -7.2188,-14.06928 -8.0671,-21.84916 -1.4936,-13.67506 2.4893,-28.9507 2.4986,-42.9036 h 6.1463 c 0,19.85378 -7.2558,49.77842 12.2928,61.46391 -5.2552,15.12929 -14.3702,23.22196 -30.732,21.51232 8.5774,20.40202 -2.2311,29.833 -8.3467,49.17362 -11.0573,34.97134 -29.3398,71.41235 -34.6779,107.55926 L 1054.34,431.96473 h -3.0733 l 9.2196,86.04938 H 753.16699 c -27.95215,0 -90.32518,-11.51823 -110.63498,9.21959 l 89.12266,-6.14631 175.16891,2.52305 86.05252,-2.52305 3.07327,18.43916 c -62.83149,0 -138.62777,11.48141 -199.75763,-3.07327 l -3.07315,9.21958 c -6.2893,-5.36879 -7.60252,-5.05529 -9.21959,3.07327 h -3.07327 v -6.14643 h -3.07315 l 3.07315,15.36601 3.07327,-9.21958 12.29274,3.07315 c 13.6775,-13.96765 36.98797,-9.21958 55.31749,-9.21958 h 144.44014 c -0.60515,16.12205 -9.31796,44.97007 12.29273,49.17107 l -9.21957,-49.17107 h 12.29277 v -3.07315 h -12.29277 v -15.36601 c 75.17647,-3.87217 165.77417,-10.65162 239.70907,3.07316 -26.9889,32.40077 -92.3065,-9.56676 -116.7814,18.43916 l 89.1226,-3.07316 c -16.3679,35.07751 2.5691,84.64801 -18.0028,116.6124 -12.978,20.16623 -42.0012,6.33692 -52.5822,22.65549 -7.5171,11.59524 1.4843,19.10297 12.1943,17.465 l -9.2196,-6.14631 v -6.14643 c 20.3016,0.92457 14.6808,24.19218 -3.027,22.90754 -16.6998,-1.21077 -19.5793,-22.24373 -39.9976,-22.90754 v 3.07316 c 18.473,2.88266 22.2622,24.56096 39.9668,26.14679 22.2346,1.99143 31.4849,-24.77306 12.2774,-35.36638 v -3.07315 c 71.0276,-0.0465 41.8968,-62.86216 55.0961,-110.63498 3.5711,-12.91972 36.8693,-32.23781 28.9189,-41.18385 -8.6972,-9.79129 -35.3572,-4.91103 -47.1368,-4.91405 -42.0626,-0.0116 -83.8918,-3.04865 -126.0007,-3.07328 l -3.0733,-55.31748 h 3.0733 l 3.0731,12.29285 h 6.1465 l 42.4224,-119.66256 31.3342,-24.77759 h -3.0733 l -18.4391,9.21958 v -9.21958 c 43.6547,-3.96381 19.2413,-36.18931 13.2578,-61.46391 -4.1918,-17.716 4.1304,-35.15335 -10.1845,-49.17106 M 940.63189,382.79367 v 6.14631 l -18.43917,3.07327 v 3.07315 l 39.95148,-24.58559 -6.14642,6.14643 c 12.83981,8.10127 33.40561,21.8013 49.15572,15.27843 33.4579,-13.85742 46.7894,-102.71084 15.3813,-122.84025 l -33.80501,33.80517 -3.07327,-3.07316 V 287.52458 H 962.1442 v -3.07315 l 36.87833,-15.36601 9.21957,12.29285 -6.1464,-12.29285 15.366,-3.07316 v -3.07315 h -12.2927 l 12.2927,-15.36601 -18.43917,18.43916 -3.07316,-9.21958 h -3.07327 l 3.07327,12.29274 c -16.61069,-3.70503 -30.95944,5.8363 -36.87832,21.51243 l 21.51232,3.07316 -3.07316,9.21958 15.36589,3.07315 v 9.21958 h 21.5124 v 15.36601 l -46.09787,9.21958 c -6.51834,28.45137 21.31869,30.73469 39.95147,18.43917 l -6.1464,18.43916 -24.58549,-6.14643 -3.07327,12.29286 -12.29274,-6.14643 3.07316,-9.21958 -26.52161,7.83725 -71.82051,-38.48157 -44.99992,-24.05663 -4.17126,-22.12886 h -3.07316 c -10.80877,33.21849 -17.56209,41.16539 -43.02475,18.43916 v -3.07327 c 17.1242,-2.85769 16.94998,-19.18834 21.51244,-33.80505 -25.5291,-21.06955 15.28969,-22.74295 30.73189,-6.14643 -13.68923,1.03608 -20.68322,4.98781 -24.58558,18.43917 l 12.29285,3.07315 -9.21958,-9.21958 v -3.07316 l 27.65874,-3.07315 v 18.43916 h 3.07316 l 3.07315,-18.43916 c -12.46882,-11.62684 -19.57002,-28.08375 -39.95148,-26.88343 -38.66719,2.27786 -43.16669,58.19121 -19.62484,80.19718 18.23973,17.04975 29.49929,-7.26753 47.32877,-2.25266 40.93796,11.51405 78.09075,42.01307 116.73622,59.57389 m 110.63481,-110.63498 9.2196,-9.21958 -9.2196,9.21958 m -261.22139,3.07315 v 3.07316 c -11.91663,-0.38563 -18.66008,-1.54181 -24.58547,-12.29274 l 24.58547,9.21958 m 258.14829,9.21959 9.2196,-6.14643 -3.0732,15.36601 c 18.6481,-8.27759 -2.2773,-27.27986 -6.1464,-9.21958 m -264.2946,6.14642 -18.43916,-9.21958 18.43916,9.21958 m 239.7091,-6.14642 3.0732,24.58558 c -12.9627,-2.77789 -10.9468,-16.7136 -3.0732,-24.58558 m 6.1463,3.07315 v 15.36601 h -3.0731 l 3.0731,-15.36601 m 101.4154,0 -18.4392,18.43916 6.1465,-9.21958 -9.2196,3.07327 21.5123,-12.29285 m -347.2708,9.21958 v 3.07327 h -18.43916 l 18.43916,-3.07327 m 43.02464,-3.07315 c 4.04001,11.91535 14.09159,16.44343 24.58559,22.74074 23.76195,14.25838 70.36686,54.27839 98.34224,47.94275 L 826.92364,293.67101 m 187.46486,0 v 18.43916 h -6.1464 l -3.0731,-18.43916 h 9.2195 m -12.2928,6.14642 3.0733,12.29274 c -9.28421,-1.99968 -9.48399,-5.88299 -3.0733,-12.29274 m 147.5133,9.21958 c -4.7266,12.85236 -11.3647,14.93288 -24.5856,15.3659 l 24.5856,-15.3659 m -334.9781,3.07316 -3.07315,3.07315 3.07315,-3.07315 m 215.1235,43.02475 c -18.5928,-3.24471 -61.6912,22.02862 -58.39061,-12.29285 20.23081,6.26966 55.54791,-24.18103 58.39061,12.29285 m -21.5123,-18.43916 -3.0731,6.14631 h 6.1463 l -3.0732,-6.14631 m -215.12351,6.14631 c -12.94714,20.51794 -21.03482,43.13881 -18.43917,67.61034 15.10014,-8.79249 17.68894,-29.68339 18.43917,-46.09791 h -3.07328 l -9.21958,39.95148 h -3.07315 l 12.29273,-52.24433 h 3.07328 v 9.21958 h 3.07315 l -3.07315,-18.43916 m -43.02476,36.87832 h 3.07316 l 21.51243,-27.65874 c -13.88901,-0.30432 -20.35532,16.12692 -24.58559,27.65874 m 288.88017,-30.73189 -18.4392,58.39064 c 17.4374,-14.20704 27.6649,-36.40628 18.4392,-58.39064 m -276.58743,18.43916 -15.36589,39.95148 -3.07327,-9.21958 h -3.07316 l 3.07316,12.29285 h 6.14642 l 12.29274,-43.02475 m 365.71013,0 c 0,19.23422 -3.2823,38.50097 12.2927,52.24433 v -27.65874 h -3.0732 l 3.0732,24.58547 h -3.0732 l -9.2195,-49.17106 m -144.44018,9.21958 -6.14631,9.21958 6.14631,-9.21958 m 9.21958,3.07315 v 9.21959 h -6.14631 v -9.21959 h 6.14631 m 9.2196,0 -6.14633,9.21959 6.14633,-9.21959 m 9.2196,0 -6.1463,6.14643 v -6.14643 h 6.1463 m -264.29462,3.07328 -3.07327,12.29273 h 3.07327 v -12.29273 m 110.63497,18.43916 c 12.17624,30.89172 27.89221,43.91587 61.4638,39.95148 l -18.43916,12.29274 v 3.07327 c 24.59175,-0.52269 52.23202,-8.18084 70.6835,-24.58559 l -6.14643,18.43916 24.58559,-24.58559 h 3.07315 l 12.2929,15.36601 -3.0733,-12.29274 18.4391,12.29274 -6.1463,-15.36601 12.2928,-15.36589 -15.366,21.51232 c -6.6811,-5.95896 -10.9375,-11.18639 -12.29277,0 h -3.07316 l -6.14642,-12.29274 -15.36601,18.43916 v -15.366 h -3.07315 l -52.24434,27.65874 6.14643,-15.36601 c -27.33607,3.45437 -44.4015,2.3572 -58.39064,-24.58547 10.82991,9.14884 24.81905,17.803 30.7319,0 12.74143,6.44447 19.57315,4.40391 24.58558,-9.21958 h -3.07327 c -9.72356,9.95099 -15.32907,8.15621 -27.65874,3.07315 l 3.07327,12.29274 -36.87833,-15.36589 m -67.61034,24.58547 3.07328,3.07327 -3.07328,-3.07327 m 325.75849,0 c -4.1918,17.01944 -7.7843,32.91092 0,49.17118 h 3.0733 l -3.0733,-49.17118 m -359.56354,3.07327 -6.14643,39.95148 c 11.89631,-8.40512 10.84223,-27.21005 6.14643,-39.95148 m 258.14824,3.07316 -3.0732,3.07315 3.0732,-3.07315 m -224.34319,3.07315 v 30.73202 h 3.07328 l -3.07328,-30.73202 m 199.75764,6.14643 12.29275,73.75665 h 3.0733 l 3.0731,-52.24433 -3.0731,-3.07316 -6.14647,6.14643 -3.07316,-24.58559 h -6.14642 m 153.65955,0 3.0733,3.07315 -3.0733,-3.07315 m 6.1465,3.07315 9.2196,33.80517 -12.2928,-27.65874 h -3.0733 c 0.4484,15.11396 3.6357,30.30783 21.5125,27.65874 l -15.366,-33.80517 m -371.85642,3.07327 3.07315,64.53707 h 3.07327 l -6.14642,-64.53707 m 341.12452,0 v 21.51232 h -3.0736 l 3.0732,-21.51232 m -362.63679,3.07316 v 9.21958 h -3.07327 l 3.07327,-9.21958 m 162.87919,0 -3.07315,3.07316 3.07315,-3.07316 m 104.4887,6.14643 v 6.14631 h 6.1463 v -6.14631 h -6.1463 m 27.6586,12.29273 -18.4391,3.07316 c 6.7579,7.40946 13.0856,4.01062 21.5124,0 l -3.0733,-3.07316 m -258.14816,6.14643 3.07315,24.58547 h 3.07316 l -6.14631,-24.58547 m 252.00186,6.14631 -12.2928,3.07327 v 3.07316 l 12.2928,-6.14643 m -15.366,21.51243 15.366,-3.07327 -15.366,3.07327 m 3.0732,6.14631 v 3.07327 h 9.2195 l -9.2195,-3.07327 m -396.44195,15.36601 -15.36601,36.87833 h 3.07316 l 12.29285,-30.7319 27.65875,12.29273 c 3.76275,29.77307 -11.05619,85.54541 6.17488,109.97733 15.52456,22.01328 46.11731,17.33897 61.43534,43.6824 -20.20038,-6.44145 -42.32621,15.4889 -18.02647,25.80554 31.12472,13.21173 37.35745,-34.4504 67.19753,-35.00979 94.36554,-1.77318 188.57125,3.04865 282.73382,3.05783 v -3.07316 c -35.1972,-6.8747 -73.66135,-2.60913 -109.33193,-2.60913 -58.80554,0 -117.64337,-0.77125 -176.47504,-0.46112 -8.38677,0.0465 -18.56112,-0.88508 -25.15474,5.35043 -9.5721,9.05674 -16.46306,38.13835 -35.83957,28.19653 -17.60415,-9.03211 -0.30781,-20.18168 11.82325,-18.18409 v 6.14643 h -12.29286 v 3.07315 c 15.00582,1.49047 21.29117,-10.69471 14.37709,-24.45341 -11.7747,-23.42999 -44.59757,-15.71318 -57.48012,-37.0565 -15.45452,-25.609 1.16198,-74.4236 -6.06803,-104.44255 h 46.09791 v 64.53707 c 13.93013,-10.60563 15.01685,-44.63509 15.36601,-61.46392 h -3.07327 l -6.14631,49.17118 h -3.07328 v -55.31749 c -27.78906,-4.63435 -58.64722,6.10647 -79.90296,-15.36601 m 73.75665,3.07316 6.14631,9.21958 -6.14631,-9.21958 m 534.7356,9.21958 3.0733,3.07327 -3.0733,-3.07327 m 9.2196,3.07327 9.2196,49.17106 h 3.0732 c 8.651,-17.73539 -1.8254,-34.07243 -12.2928,-49.17106 m -620.78512,3.07316 -6.14631,52.24433 -6.14643,-30.73201 h -3.07315 v 33.80517 c 13.5229,-4.38231 14.75191,-14.45933 15.36589,-27.65875 h 3.07327 l 3.07315,39.95148 h 3.07316 v -46.0979 l -9.21958,-21.51232 m 132.14741,3.07315 3.07316,12.29286 h 3.07315 l -6.14631,-12.29286 m 325.75851,0 v 33.80517 h 3.0731 l -3.0731,-33.80517 m 21.5123,0 v 18.43917 h 3.0732 l -3.0732,-18.43917 m -82.9762,3.07327 v 79.90296 h -3.0732 l 3.0732,-61.46379 h -3.0732 v 9.21958 h -3.0731 V 557.9656 h -3.0733 v 9.21958 h -3.0732 v -9.21958 h -3.0731 v 18.43916 c 15.3352,0 7.4186,46.81398 12.2927,58.39064 9.7083,-14.21041 16.9148,-73.9533 3.0732,-86.04939 m 39.9514,0 v 18.43917 h -3.0731 v -15.36601 h -3.0732 v 39.95148 h 3.0732 l 9.2196,-43.02464 h -6.1465 m 31.7554,2.04986 1.0267,2.04672 -1.0267,-2.04672 m -366.73342,1.0233 3.07327,15.36601 -3.07327,-15.36601 m 12.29285,0 v 55.31749 h 3.07316 l -3.07316,-55.31749 m 15.36589,6.14643 3.07327,24.58547 h 3.07316 l 3.07315,-9.21958 h -3.07315 v 6.14642 h -3.07316 l -3.07327,-21.51231 m 245.85558,0 v 27.65874 h 3.0731 l -3.0731,-27.65874 m 92.1958,0 -3.0733,15.36589 h 3.0733 V 557.9656 m 162.8792,0 3.0732,27.65874 h -3.0732 V 557.9656 m -494.78415,9.21958 3.07315,3.07315 -3.07315,-3.07315 m 298.09975,6.14631 v 15.366 h -3.0732 l 3.0732,-15.366 m 141.3669,95.26908 v 3.07316 l 33.8051,3.07315 v -3.07315 l -33.8051,-3.07316 m 36.8783,3.07316 21.5124,9.21958 v 9.21958 l -55.3175,15.36601 49.1711,21.51231 c -63.0435,15.53199 -153.0973,23.24868 -215.1235,3.07328 v -3.07328 c 15.0924,-4.36697 32.0227,-6.98225 39.9515,-21.51231 l -12.2928,-6.14643 24.5855,-9.21958 v -3.07316 h -30.7319 v 3.07316 h 9.2196 l -6.1465,12.29285 9.2196,3.07316 v 6.14642 l -36.8783,12.29274 c 11.1589,21.27572 37.4039,18.43916 58.3908,18.43916 52.235,0 112.7892,3.59259 162.8792,-12.29273 -8.8877,-17.77849 -27.9139,-20.82098 -46.098,-24.58559 v -3.07316 c 21.0884,-0.17539 44.9916,-0.58424 55.3175,-21.51243 l -27.6587,-9.21958 m -568.54077,12.29285 27.65875,-3.07327 c -9.49335,-3.98286 -20.56731,-5.0431 -27.65875,3.07327 m -18.43916,24.58547 v -3.07315 l -24.58559,-6.14643 v -6.14631 l 39.9516,-9.21958 c -30.2443,-12.66164 -61.13138,22.20377 -15.36601,24.58547 m 519.36973,-24.58547 -3.0732,30.7319 h 3.0732 v -30.7319 m 6.1465,0 v 27.65874 h 3.073 l -3.073,-27.65874 m -408.73483,6.14631 v 33.80517 h 3.07316 l -3.07316,-33.80517 m -9.21958,3.07327 3.07316,46.09791 h 3.07315 l -6.14631,-46.09791 m 18.43917,3.07316 v 18.43916 h 3.07315 l -3.07315,-18.43916 m 187.46478,0 v 3.07315 l 18.43916,6.14643 c -23.41466,11.07883 -94.25182,11.82871 -98.34224,36.87832 h 3.07327 c 18.0058,-32.97236 78.86421,-3.73696 98.34213,-39.95148 l -21.51232,-6.14642 m -325.75851,49.17106 v -3.07316 l -24.58559,-15.36601 43.02476,-12.29273 c -29.78666,-6.80095 -66.91889,29.55795 -18.43917,30.7319 m 105.51279,-28.68205 1.02446,2.04672 -1.02446,-2.04672 m 364.68578,-2.04985 v 12.29273 h 3.0732 l 6.1463,-6.14631 -9.2195,-6.14642 m -464.05226,30.7319 v 3.07327 c 60.48638,1.24771 120.53626,6.14631 181.31848,6.14631 18.13461,0 51.75254,5.97742 64.53707,-9.21958 -80.01087,18.28863 -164.94508,0 -245.85555,0 z"
         id="path847"
         sodipodi:nodetypes="cccscccccccccccscccccccccscccccccccccccccccccccsccccccccccccccsccccccccccccccccccscccccccccccccccccccccccccccccccccccccccccccccccccccccccccccccccccccccccccscccccccccccccccccccccccccccccccccccccccccccccccccccccccccccccccccccccccccccccccccccccccccccccccccccccccccccccccccccccccccccccccccccccccccccccccccccccccccccccccccccccccccccccccccccccccccccccccccccccccccccccccccccccccccccccsccscccccccccccccccccccccccccccccccccccccccccccccccccccccccccccccccccccccccccccccccccccccccccccccccccccccccccccccccccccccccccccccccccccccsccccccccccccccccccccccccccccccccccccccccccccccccccccccccscc" />
      <text
         xml:space="preserve"
         style="font-size:56.1079px;line-height:1.25;font-family:Broadway;-inkscape-font-specification:Broadway;stroke-width:1.4027"
         x="756.91541"
         y="183.25914"
         id="text924"
         transform="scale(1.0687697,0.93565526)"><tspan
           sodipodi:role="line"
           id="tspan922"
           x="756.91541"
           y="183.25914"
           style="font-style:italic;font-variant:normal;font-weight:normal;font-stretch:normal;font-family:'Californian FB';-inkscape-font-specification:'Californian FB Italic';stroke-width:1.4027">εύρηκα !!!</tspan></text>
    </g>
  </g>
</svg>
